Coordinates
version=1
nRows=7
nColumns=42
inDegrees=yes

Units are S.I. units (second, meters, Newtons, ...)
If the header above contains a line with 'inDegrees', this indicates whether rotational values are in degrees (yes) or radians (no).

endheader
time	pelvis_tilt	pelvis_list	pelvis_rotation	pelvis_tx	pelvis_ty	pelvis_tz	hip_flexion_r	hip_adduction_r	hip_rotation_r	knee_angle_r	knee_adduction_r	knee_angle_r_beta	ankle_angle_r	subtalar_angle_r	mtp_angle_r	hip_flexion_l	hip_adduction_l	hip_rotation_l	knee_angle_l	knee_adduction_l	knee_angle_l_beta	ankle_angle_l	subtalar_angle_l	mtp_angle_l	lumbar_extension	lumbar_bending	lumbar_rotation	arm_flex_r	arm_add_r	arm_rot_r	elbow_flex_r	pro_sup_r	wrist_flex_r	wrist_dev_r	arm_flex_l	arm_add_l	arm_rot_l	elbow_flex_l	pro_sup_l	wrist_flex_l	wrist_dev_l
      1.82000000	     -2.65964159	     -3.17895553	     -7.09977946	      0.32235286	      0.85831405	     -0.11900801	    -14.54520735	     -3.90839922	      2.03463822	     12.94848237	     12.49587945	      0.22599365	     16.70410385	      5.48406724	     -7.50501285	     26.37928654	    -14.70627805	     -8.95597515	     11.66093349	     16.89029368	      0.20352168	     -3.58568985	     -9.26013605	     -7.50501285	    -10.69629007	      3.64401121	      6.28120152	      4.87396006	    -19.00151782	     -2.04000547	     40.38617883	     90.00000001	      0.00000000	      0.00000000	    -12.46592092	     -6.56392623	     -4.21646535	     22.19799923	     90.00000001	      0.00000000	      0.00000000
      1.83000000	     -2.64706523	     -2.90382325	     -6.92075279	      0.33441230	      0.85870874	     -0.12062797	    -14.88318343	     -4.27125993	      2.57491913	     13.66854667	     12.33937424	      0.23856114	     16.29878523	      5.54996954	     -7.50498288	     26.01699896	    -14.38596314	     -8.47357442	     12.28248632	     17.30618863	      0.21436983	     -3.83867114	     -9.12103181	     -7.50498288	    -10.65997036	      3.20624964	      6.03769287	      4.22698102	    -18.85209245	     -2.02646195	     40.16458443	     90.00000001	      0.00000000	      0.00000000	    -12.46546729	     -6.66349557	     -4.23891446	     22.26048058	     90.00000001	      0.00000000	      0.00000000
      1.84000000	     -2.41799046	     -2.32741313	     -6.78288048	      0.34639408	      0.85968422	     -0.12252668	    -15.05235477	     -5.27844360	      1.94019207	     15.29394397	     12.58845601	      0.26692968	     14.25337572	      5.05091523	     -7.50489285	     25.53872119	    -13.70601465	     -8.69160791	     13.37553056	     17.51771184	      0.23344705	     -4.92503977	     -9.65225405	     -7.50489285	    -10.86817905	      2.40289746	      6.00479432	      3.79837427	    -18.61102504	     -2.17714173	     39.43559547	     90.00000001	      0.00000000	      0.00000000	    -12.09075258	     -6.93823090	     -4.31056211	     22.17408350	     90.00000001	      0.00000000	      0.00000000
      1.85000000	     -2.39557445	     -1.87438368	     -6.52236660	      0.35835374	      0.86076233	     -0.12447389	    -14.94221483	     -5.93304923	      1.59786515	     16.96087172	     12.55724949	      0.29602306	     12.61714601	      4.64314655	     -7.50479103	     25.25936381	    -13.13044593	     -8.39903826	     14.26110705	     17.82134302	      0.24890327	     -5.49892428	    -10.12019193	     -7.50479103	    -10.84990382	      1.78516741	      5.74461897	      3.39792030	    -18.26347934	     -2.43336085	     38.43149912	     90.00000001	      0.00000000	      0.00000000	    -11.77842245	     -7.13589502	     -4.38280936	     21.89724148	     90.00000001	      0.00000000	      0.00000000
      1.86000000	     -2.41788579	     -1.49119651	     -6.18119800	      0.37025008	      0.86205542	     -0.12646267	    -14.63667596	     -6.47827985	      1.12176637	     18.89126617	     12.50923248	      0.32971479	     11.19175231	      4.64333109	     -7.50450961	     24.98260076	    -12.60407093	     -7.52723154	     14.92538386	     18.27469866	      0.26049709	     -6.05899093	    -11.03940182	     -7.50450961	    -10.79023911	      1.25829292	      5.44123771	      3.28737047	    -17.73092552	     -3.18716797	     36.54459226	     90.00000001	      0.00000000	      0.00000000	    -11.26564366	     -7.31102536	     -4.61102844	     21.23753743	     90.00000001	      0.00000000	      0.00000000
      1.87000000	     -2.19148816	     -1.11279468	     -5.80037164	      0.38230388	      0.86377965	     -0.12871101	    -14.55284183	     -7.14524695	      0.70676918	     20.85367886	     12.66093429	      0.36396536	      9.01176594	      4.26610249	     -7.50442709	     24.40298825	    -12.01479955	     -7.06536515	     15.68519008	     18.61331878	      0.27375821	     -5.70256290	    -11.09144580	     -7.50442709	    -11.03216562	      0.75694436	      5.15932023	      2.63745376	    -17.56234902	     -3.27129841	     36.01886181	     90.00000001	      0.00000000	      0.00000000	    -10.97550486	     -7.49134832	     -4.64859846	     21.29312894	     90.00000001	      0.00000000	      0.00000000
      1.88000000	     -2.16358179	     -0.78442064	     -5.35677875	      0.39411063	      0.86546751	     -0.13091320	    -13.94266373	     -7.68173365	     -0.18101204	     23.41706163	     12.55287742	      0.40870483	      6.86411024	      4.28468470	     -7.50415722	     24.03564612	    -11.44664574	     -6.35679543	     16.32832510	     18.92781821	      0.28498303	     -5.47640227	    -11.22414529	     -7.50415722	    -11.06603636	      0.32809228	      4.79984986	      2.38468558	    -17.13874134	     -3.74482997	     34.49351302	     90.00000001	      0.00000000	      0.00000000	    -10.47226071	     -7.70572205	     -4.78360031	     20.90721140	     90.00000001	      0.00000000	      0.00000000
